<svg width="22" height="22" xmlns="http://www.w3.org/2000/svg">
 <!-- Created with Method Draw - http://github.com/duopixel/Method-Draw/ -->
 <g id="Layer_1">
  <title>Layer 1</title>
  <ellipse stroke="#00f7f7" ry="9.90603" rx="9.96853" id="svg_1" cy="11.14375" cx="10.9375" opacity="undefined" stroke-dasharray="null" stroke-width="null" fill="#00f7f7"/>
  <path id="svg_2" d="m3.37867,28.10899l0.83236,-0.53692l-1.60933,0l-1.60933,0l0,-0.33238l0,-0.33238l1.59086,0c0.87497,0 1.59086,-0.01685 1.59086,-0.03744c0,-0.02059 -0.34832,-0.2622 -0.77405,-0.53692l-0.77406,-0.49948l0.71546,0l0.71546,0l1.09267,0.70378l1.09267,0.70378l-1.09477,0.70244l-1.09477,0.70244l-0.75321,0l-0.75321,0l0.83236,-0.53692l0,0z" opacity="undefined" fill-opacity="null" stroke-opacity="null" stroke-dasharray="null" stroke-width="null" stroke="#00f7f7" fill="#00f7f7"/>
  <path id="svg_3" d="m298.24428,273.51051l0.218,-0.65623l-0.42149,0l-0.42149,0l0,-0.40624l0,-0.40624l0.41665,0c0.22916,0 0.41665,-0.02059 0.41665,-0.04576c0,-0.02517 -0.09123,-0.32047 -0.20273,-0.65623l-0.20273,-0.61048l0.18738,0l0.18738,0l0.28617,0.86018l0.28617,0.86018l-0.28672,0.85853l-0.28672,0.85853l-0.19727,0l-0.19727,0l0.218,-0.65623l0,0z" opacity="undefined" stroke-dasharray="null" stroke-width="null" stroke="#ffffff" fill="#ffffff"/>
  <path id="svg_4" d="m2.75369,28.76636l0.61436,-0.69203l-1.18784,0l-1.18784,0l0,-0.4284l0,-0.4284l1.17421,0c0.64581,0 1.17421,-0.02171 1.17421,-0.04825c0,-0.02654 -0.2571,-0.33795 -0.57133,-0.69203l-0.57133,-0.64378l0.52808,0l0.52808,0l0.8065,0.9071l0.8065,0.9071l-0.80804,0.90536l-0.80804,0.90536l-0.55594,0l-0.55594,0l0.61436,-0.69203l0,0z" opacity="undefined" stroke-dasharray="null" stroke-width="null" stroke="#ffffff" fill="#ffffff"/>
  <path id="svg_5" d="m298.96017,226.75766l0.00991,-47.40907l-0.01916,0l-0.01916,0l0,-29.34846l0,-29.34849l0.01894,0c0.01042,0 0.01894,-1.48752 0.01894,-3.30561c0,-1.81805 -0.00415,-23.15214 -0.00921,-47.40906l-0.00921,-44.1035l0.00852,0l0.00852,0l0.01301,62.14279l0.01301,62.14276l-0.01303,62.02386l-0.01303,62.02386l-0.00897,0l-0.00897,0l0.00991,-47.40909l0,0.00001z" opacity="undefined" stroke-dasharray="null" stroke-width="null" stroke="#ffffff" fill="#ffffff"/>
  <path id="svg_6" d="m136.44681,226.75766l47.24773,-47.40907l-91.35118,0l-91.35098,0l0,-29.34846l0,-29.34849l90.303,0c49.66658,0 90.30293,-1.48752 90.30293,-3.30561c0,-1.81805 -19.77211,-23.15214 -43.93797,-47.40906l-43.93811,-44.1035l40.61224,0l40.61209,0l62.02386,62.14279l62.02383,62.14276l-62.14281,62.02386l-62.14279,62.02386l-42.75481,0l-42.75491,0l47.24786,-47.40909l0.00002,0.00001z" opacity="undefined" stroke-dasharray="null" stroke-width="null" stroke="#ffffff" fill="#ffffff"/>
  <path id="svg_7" d="m298.44881,272.63951l0.15855,-1.52724l-0.30654,0l-0.30654,0l0,-0.94543l0,-0.94544l0.30303,0c0.16666,0 0.30302,-0.04792 0.30302,-0.10649c0,-0.05857 -0.06635,-0.74583 -0.14744,-1.52724l-0.14744,-1.42075l0.13628,0l0.13628,0l0.20813,2.00187l0.20813,2.00187l-0.20853,1.99804l-0.20853,1.99804l-0.14347,0l-0.14347,0l0.15855,-1.52724l0,0z" opacity="undefined" stroke-dasharray="null" stroke-width="null" stroke="#ffffff" fill="#ffffff"/>
  <path id="svg_8" d="m2.04349,28.05842l0.36664,-0.52499l-0.70887,0l-0.70887,0l0,-0.32499l0,-0.32499l0.70074,0c0.38541,0 0.70074,-0.01647 0.70074,-0.0366c0,-0.02013 -0.15343,-0.25638 -0.34095,-0.52499l-0.34095,-0.48838l0.31514,0l0.31514,0l0.4813,0.68814l0.4813,0.68814l-0.48222,0.68683l-0.48222,0.68683l-0.33177,0l-0.33177,0l0.36664,-0.52499l0,0z" opacity="undefined" stroke-dasharray="null" stroke-width="null" stroke="#ffffff" fill="#ffffff"/>
  <path id="svg_9" d="m4.21641,22.69101l0.04955,-0.05966l-0.09579,0l-0.09579,0l0,-0.03693l0,-0.03693l0.09469,0c0.05208,0 0.09469,-0.00187 0.09469,-0.00416c0,-0.00229 -0.02073,-0.02913 -0.04607,-0.05966l-0.04607,-0.0555l0.04259,0l0.04259,0l0.06504,0.0782l0.06504,0.0782l-0.06516,0.07805l-0.06516,0.07805l-0.04483,0l-0.04483,0l0.04955,-0.05966l0,0z" opacity="undefined" stroke-dasharray="null" stroke-width="null" stroke="#ffffff" fill="#ffffff"/>
  <path id="svg_12" d="m10.69676,12.70786l2.14036,-1.1335l-4.13828,0l-4.13827,0l0,-0.70169l0,-0.70169l4.09079,0c2.24993,0 4.09079,-0.03556 4.09079,-0.07903c0,-0.04347 -0.89569,-0.55354 -1.99042,-1.1335l-1.99043,-1.05447l1.83976,0l1.83976,0l2.80973,1.48576l2.80973,1.48576l-2.81512,1.48292l-2.81511,1.48292l-1.93682,0l-1.93683,0l2.14036,-1.1335l0,0z" opacity="undefined" fill-opacity="null" stroke-opacity="null" stroke-dasharray="null" stroke-width="null" stroke="#ffffff" fill="#ffffff"/>
 </g>
</svg>